<?xml version="1.0" encoding="UTF-8" standalone="no"?>
<!-- Created with Inkscape (http://www.inkscape.org/) -->

<svg
   xmlns:dc="http://purl.org/dc/elements/1.1/"
   xmlns:cc="http://creativecommons.org/ns#"
   xmlns:rdf="http://www.w3.org/1999/02/22-rdf-syntax-ns#"
   xmlns:svg="http://www.w3.org/2000/svg"
   xmlns="http://www.w3.org/2000/svg"
   xmlns:sodipodi="http://sodipodi.sourceforge.net/DTD/sodipodi-0.dtd"
   xmlns:inkscape="http://www.inkscape.org/namespaces/inkscape"
   width="696.625"
   height="289.13943"
   id="svg2"
   version="1.1"
   inkscape:version="0.48.0 r9654"
   sodipodi:docname="impala2.svg"
   inkscape:export-filename="/home/philip/Desktop/mandrill/impala2.png"
   inkscape:export-xdpi="600"
   inkscape:export-ydpi="600">
  <defs
     id="defs4" />
  <sodipodi:namedview
     id="base"
     pagecolor="#ffffff"
     bordercolor="#666666"
     borderopacity="1.0"
     inkscape:pageopacity="0.0"
     inkscape:pageshadow="2"
     inkscape:zoom="1"
     inkscape:cx="368.48601"
     inkscape:cy="149.52105"
     inkscape:document-units="px"
     inkscape:current-layer="layer1"
     showgrid="false"
     inkscape:window-width="1280"
     inkscape:window-height="947"
     inkscape:window-x="0"
     inkscape:window-y="24"
     inkscape:window-maximized="1"
     fit-margin-top="0"
     fit-margin-left="0"
     fit-margin-right="0"
     fit-margin-bottom="0" />
  <metadata
     id="metadata7">
    <rdf:RDF>
      <cc:Work
         rdf:about="">
        <dc:format>image/svg+xml</dc:format>
        <dc:type
           rdf:resource="http://purl.org/dc/dcmitype/StillImage" />
        <dc:title></dc:title>
      </cc:Work>
    </rdf:RDF>
  </metadata>
  <g
     inkscape:label="Ebene 1"
     inkscape:groupmode="layer"
     id="layer1"
     transform="translate(-13,-249.97276)">
    <path
       style="fill:#000000;fill-opacity:1;stroke:none"
       d="M 410.5625 0 L 368.65625 0.84375 L 369.0625 0.625 L 332.3125 2.3125 L 307.6875 4.0625 L 293.375 6.3125 L 289.3125 7.9375 L 267.1875 29.8125 L 267.375 30.5 L 272.6875 25.4375 L 281.0625 17.4375 L 286.1875 12.375 L 290.5625 9.75 L 296.625 8.375 L 313.0625 6.4375 L 312.125 7.75 L 320.5625 7.375 L 310.1875 9.125 L 301.1875 10.25 L 296.125 12.0625 L 298.0625 12.375 L 304.125 11.0625 L 314 10.875 C 314 10.875 310.4375 12.6875 310.0625 12.75 C 309.6875 12.8125 324.375 13.4375 324.375 13.4375 L 327.1875 10.4375 L 331.375 8.75 L 342 7.5625 L 358.625 6.125 L 366.21875 2.125 L 376.25 2.3125 L 361.59375 8.3125 L 352.9375 13.625 L 361.25 16.625 L 365.125 19.4375 L 363.71875 19.96875 L 357.6875 17.15625 L 351.6875 15.1875 L 349.5625 16.4375 L 353.46875 17.84375 L 352.21875 19.8125 L 340.5625 44.71875 L 342.15625 45.4375 L 348.875 29.6875 L 355.59375 19.09375 L 361.0625 22.625 L 368.46875 30.75 L 378.03125 45.0625 L 368.65625 45.96875 L 364.0625 47.375 L 367.78125 50.21875 L 382.625 51.25 L 390.0625 53.03125 L 390.75 54.8125 L 408.4375 54.4375 L 408.78125 48.96875 L 410.21875 50.75 L 410.5625 54.4375 L 415.6875 53.375 L 438.84375 53.03125 L 427.875 40.84375 L 415.875 27.75 L 414.4375 24.9375 L 417.09375 22.96875 L 418.875 21.375 L 447.5 18.5625 C 447.5 18.5625 470.31434 16.78125 471.375 16.78125 C 472.43566 16.78125 482.6875 16.25 482.6875 16.25 L 479.6875 14.5 L 480.03125 12.5625 L 489.21875 9 L 475.96875 6 L 457.21875 3.34375 L 480.75 3.71875 L 501.25 4.25 L 500.71875 3.71875 L 482.6875 2.125 L 455.28125 0.53125 L 410.5625 0 z M 511.21875 3.53125 L 511.15625 6.96875 L 516.34375 6.71875 L 519.4375 16.78125 L 535.4375 18.5625 L 564.375 22.1875 L 568.59375 37.65625 L 573.28125 57.71875 L 557.90625 57.4375 L 555.96875 61 L 574.5625 62.46875 L 575.9375 66.71875 L 559.21875 67.1875 L 547.125 67 L 556.21875 65.6875 L 545 65.40625 L 540.5 64.25 L 540.125 65.21875 L 544.8125 66.90625 L 539.875 66.71875 L 538.53125 67.78125 L 563.8125 68.5 L 577.15625 67.96875 L 575.5625 62.34375 L 575.65625 62.3125 L 574.78125 58.59375 L 571.59375 45.6875 L 567.09375 29 L 565.03125 22.28125 L 565.0625 22.28125 L 564.71875 18.8125 L 564.8125 18.78125 L 569.21875 30.5 L 573.8125 45.59375 L 578.5 67.96875 L 579.8125 67.71875 L 575.84375 48 L 571.0625 32.25 L 566.3125 19.53125 L 565.53125 17.875 L 565.3125 15.03125 L 567.71875 20.40625 L 581.0625 29.625 L 592.8125 42 L 604.125 55.5 L 608.53125 61.6875 L 611.71875 61.6875 L 614.28125 60.53125 L 616.3125 57.96875 L 615.875 56.40625 L 613.15625 55.25 L 609.59375 55.25 L 603.0625 45.59375 L 586.09375 25.28125 L 572.21875 13.875 L 559.125 8.3125 L 532.71875 4.34375 L 511.21875 3.53125 z M 284.125 9.125 L 262.875 30 L 240.125 54.625 L 240.75 55.28125 L 255.1875 39.90625 L 265.90625 28.53125 L 284.625 10 L 284.125 9.125 z M 515.03125 9.5 L 513.09375 10.0625 C 513.44731 11.29993 518.5625 29.875 518.5625 29.875 L 522.28125 53.5625 L 523.53125 65.40625 L 518.75 65.21875 L 519.4375 66.8125 L 525.625 66.46875 L 524.21875 54.625 L 521.625 35.75 L 519.28125 25.1875 L 516.4375 13.53125 L 515.03125 9.5 z M 287.25 24 L 284.125 27 C 284.125 27 269.625 49.75 268.75 51 L 268.125 50.75 L 269.625 52.75 L 272.375 47.75 L 283.625 29.25 L 286.5 25.75 L 287.25 24 z M 350.6875 51.125 L 343.625 52.375 L 334.5625 53.5625 L 323.25 55.375 L 319.625 57.1875 C 320.0625 57.0625 330.5 55.375 330.8125 55.375 C 331.125 55.375 344.8125 54.4375 344.8125 54.4375 L 353.6875 53.6875 C 353.6875 53.6875 360.1875 52.5625 359.875 52.5 C 359.5625 52.4375 350.6875 51.125 350.6875 51.125 z M 254.9375 52.3125 C 254.9375 52.3125 246.25 53.1875 245.8125 53.1875 L 246.125 53.8125 L 248.6875 53.8125 L 254.25 54.25 L 247.8125 54.5 L 243.9375 54.625 L 242.625 55.9375 L 245.1875 55.4375 L 248.125 55.625 L 246 57.5 L 248.4375 56.6875 L 254.125 57.1875 L 247.0625 58.0625 L 253.8125 58.3125 L 257.1875 56.625 L 261 56.0625 L 263.5625 57.6875 L 267 58.0625 L 264.9375 56.25 L 279.75 59.625 L 281.4375 58.875 L 272.5625 54.9375 L 262.8125 52.5625 L 254.9375 52.3125 z M 365.875 53.875 L 354 54.0625 L 345.125 54.9375 L 331.75 56.625 L 315.5 58.5625 L 315.8125 59.3125 L 323.1875 58.875 L 335 57.1875 L 332.25 59.25 L 334.8125 58.5 L 346.75 59 L 367.5 59.25 L 370 57.9375 L 369.75 56.75 C 369.75 56.75 344 56.9375 343.375 56.8125 C 342.75 56.6875 344.6875 56.125 344.6875 56.125 L 365.875 55.25 L 369.5625 54.8125 L 365.875 53.875 z M 526.4375 55.34375 L 526.25 61 L 539.875 60.8125 C 539.875 60.8125 535.44195 56.29105 535 55.9375 C 534.55806 55.58395 526.4375 55.34375 526.4375 55.34375 z M 284.125 56.8125 L 282.8125 57.1875 L 288.0625 59.8125 L 290.0625 61.125 L 277.625 61.5 L 262.0625 62.1875 L 250 62.625 L 240.3125 63.4375 L 230.1875 65.3125 L 230.3125 65.9375 L 233.75 65.625 L 240 64.375 C 240 64.375 247.4375 63.625 247.9375 63.625 C 248.4375 63.625 256.25 63.25 256.25 63.25 L 261.8125 63.625 L 271.6875 63.3125 L 276.375 62.625 L 279.8125 63 L 284.1875 63.5 L 281.5625 64.0625 L 265.125 64.0625 L 259.6875 64.5 L 255 65.5625 L 264.9375 65.375 L 278.0625 65 L 291.25 63.875 L 297.0625 63.5625 L 299.3125 62.9375 L 299.625 61.5625 L 296.125 62.625 L 294.375 62.25 L 297.6875 61.625 L 297.9375 60.3125 C 297.9375 60.3125 295 60.5 294.625 60.5 C 294.25 60.5 292.625 59.0625 292.625 59.0625 L 284.125 56.8125 z M 385.375 57.625 L 390.375 59.75 L 409.875 63.25 L 408.25 65 L 395.875 61.125 L 385.25 61.5 L 383.625 63.5 L 369.375 63.75 L 350.75 61.625 L 343.875 60.375 L 315 60.125 L 300.625 60.5 L 302.625 62.75 L 315.625 61.625 L 319.125 63.25 L 323.625 64.125 L 342.375 64.875 L 370.75 65.625 L 390 66 L 393.75 64.375 L 400.5 65.25 L 403.625 67.125 L 410.875 67.25 L 415.375 66.25 L 415.875 63.375 L 408.375 60.875 L 391.375 57.875 L 385.375 57.625 z M 267.5625 60.0625 C 267.5625 60.0625 258.25 60.75 257.25 60.75 L 257.25 61.5 L 261.375 61.25 L 272 61.1875 L 279.75 60.75 L 279.5 60.125 L 267.5625 60.0625 z M 616.3125 62.65625 L 613.84375 62.75 L 608.625 63.71875 L 604.21875 64.875 C 604.21875 64.875 596.6973 67.25 596.34375 67.25 C 595.99019 67.25 590.34375 69.46875 590.34375 69.46875 L 586.1875 69.46875 L 585.375 70.1875 L 537.125 69.90625 L 536.78125 70.90625 L 562.6875 70.90625 L 584.625 71.0625 C 584.625 71.0625 592.65625 79.65625 592.65625 79.78125 L 596.3125 84.5625 L 601.1875 85.375 L 603.1875 86.6875 L 598.3125 87 L 598.375 87.1875 L 595.625 88 L 588.9375 87.5 L 584.6875 87.625 C 584.6875 87.625 576.8525 92.526707 575.90625 93.0625 L 573.75 90.90625 L 556 86.90625 L 546.25 86.15625 L 541.25 80.40625 L 535.5 79.40625 L 528.75 77.15625 L 526.25 75.40625 L 530 71.15625 L 529.34375 71.21875 L 532.4375 70.1875 L 505.21875 68.9375 L 505.65625 70.53125 L 512.65625 70.625 L 522.65625 71.71875 L 510 72.65625 L 513 77.40625 L 518.5 77.40625 L 521.75 79.40625 L 510.25 91.90625 L 504 95.65625 L 497 94.90625 L 489 92.40625 L 489.25 88.15625 L 496 80.40625 L 502.5 76.40625 L 502.75 72.90625 L 485 73.40625 L 445.5 76.40625 L 415 79.65625 L 394.5 82.65625 L 374 85.65625 L 363.75 88.65625 L 361.5 91.15625 L 365.75 95.65625 L 368.75 104.15625 L 368.75 112.40625 L 371 117.15625 L 374 117.90625 L 371.25 119.15625 L 363.25 120.90625 L 348.25 120.65625 L 347.21875 119.8125 L 347.375 119.78125 L 352.9375 116.25 L 354.1875 111.4375 L 352.4375 103.125 L 351.65625 98.8125 L 354.4375 94.78125 L 347.625 97.5625 L 339.53125 99.0625 L 314.53125 99.0625 L 184.46875 91.71875 L 181.09375 90.875 L 179.875 89.90625 L 181.71875 88.21875 L 186.21875 86.28125 L 186.75 84.84375 L 179.78125 87.5 L 174.78125 91.1875 L 167.3125 90.75 L 165.375 90.28125 L 164.65625 89.0625 L 164.46875 87.65625 L 165.25 85.6875 L 163.625 86.03125 L 161.4375 88.46875 L 159.46875 90.5625 L 158.46875 91.21875 L 156.375 91.625 L 155.1875 91.75 L 52.15625 92 L 41.8125 91.5 L 32.96875 89.46875 L 31.6875 85.9375 L 15.28125 105.625 L 15.03125 112.96875 L 20.34375 109.9375 L 30.4375 109.6875 L 52.15625 111.1875 L 65.78125 112.71875 L 76.15625 118.53125 L 180.6875 124.0625 L 277.65625 127.59375 L 280.6875 122.5625 L 287 120.53125 L 296.875 120.28125 L 338.25 121 L 345 121.90625 L 355 124.40625 L 361.25 128.65625 L 365.5 132.65625 L 368.75 142.90625 L 371.75 162.0625 L 365.9375 161.1875 L 364.8125 154 L 363.40625 148.4375 L 363.40625 153.75 L 362.65625 157.78125 L 360.125 161.9375 L 355.46875 165.875 L 350.65625 168.125 L 345.96875 168.40625 L 340.4375 167.375 L 335 164.84375 L 325.03125 164.84375 L 324.25 163.09375 L 333.875 163.46875 L 329.3125 157.65625 L 325.65625 157.65625 L 325.28125 156.65625 L 328.8125 155.90625 L 327.28125 153.625 L 324.90625 142.5 L 324.53125 135.4375 L 324.53125 132.15625 L 326.53125 129 L 330.84375 127.09375 L 337.65625 126.46875 L 344.84375 127.09375 L 348.375 127.71875 L 349.125 126.84375 L 344.71875 124.71875 L 337.90625 123.9375 L 330.71875 123.8125 L 326.15625 124.4375 L 323.125 126.21875 L 325.40625 126.71875 L 323.125 131.90625 L 323.375 140.375 L 318.0625 140.09375 L 319.34375 145.15625 L 319.84375 153.125 L 316.6875 159.8125 L 312.90625 162.59375 L 308.09375 164.84375 L 303.9375 165.625 L 299.78125 165.5 L 296.09375 164.71875 L 292.0625 162.21875 L 284.875 162.125 L 284.875 160.875 L 290.9375 160.9375 L 288.28125 157.96875 L 287.09375 155.4375 L 283.78125 155.75 L 283.71875 154.875 L 286.25 154.8125 L 284.625 149.5 L 282.90625 149.5 L 282.84375 148.8125 L 284.0625 148.1875 L 282.96875 143.40625 L 282.21875 143.40625 L 282.15625 142.8125 L 282.84375 142.875 L 282.40625 138.21875 L 281.84375 133.90625 L 282.59375 129.4375 L 283.78125 127.21875 L 286.75 125.65625 L 290.8125 124.96875 L 296.625 125.03125 L 302.15625 125.59375 L 306.21875 126.65625 L 308.875 127.28125 L 309.4375 126.71875 L 304.5625 124.3125 L 298.4375 123.125 L 292.875 122.5 L 288.78125 122.6875 L 284.8125 124 L 281.28125 126.84375 L 280.4375 128.625 L 280.0625 132.21875 L 280.6875 135.625 L 280.3125 138.03125 L 269.78125 137.78125 L 272.0625 142.125 L 280.4375 142.71875 L 280.25 143.25 L 279 143.46875 L 272.75 143.59375 L 273 147.6875 L 279.5 147.4375 L 281.78125 149.78125 C 281.78125 149.78125 273.87817 149.59375 273.5625 149.59375 C 273.24683 149.59375 274.125 154.375 274.125 154.375 L 280.625 154.0625 L 283.03125 156.90625 L 281.96875 157.03125 L 281.28125 155.5625 L 273.5625 155.4375 L 273.5625 155.59375 L 225.1875 153.5625 L 169.875 150.9375 L 91.375 145.625 L 91.3125 146.25 L 92.6875 149.75 L 114.5625 151.4375 L 114.5625 150.5 L 115.4375 150.5 L 115.625 151.5625 L 138.6875 153 L 138.8125 152.125 L 139.6875 152.125 L 140.25 153.375 L 164.125 155.125 L 164 154.25 L 165.25 154.3125 L 165.8125 155.25 L 199.1875 156.8125 L 199.375 156.0625 L 200.5625 156.0625 L 201.1875 157.0625 L 235.9375 159.125 L 236.375 157.75 L 237.3125 157.8125 L 237.375 158.9375 L 272.9375 160.875 L 273.40625 160.125 L 280.0625 160.1875 L 283.09375 161.125 L 283.28125 162.0625 L 272.5 161.4375 L 237.78125 159.9375 L 237.78125 160.09375 L 184.75 157.25 L 133.5 154.125 L 92.75 151.125 L 95.375 157.5 L 153.375 161.25 L 217.125 164.875 L 238.15625 166.625 L 238.15625 166.75 L 255.6875 167.875 C 255.6875 167.875 267.05742 168.90625 267.5625 168.90625 C 268.06758 168.90625 275.03125 170.65625 275.03125 170.65625 L 289.53125 170.53125 L 310.75 171.6875 L 321.625 173.9375 L 338.03125 173.3125 L 339.03125 172.1875 L 355.0625 171.5625 L 361.625 170.15625 L 369.09375 165.5 L 369.125 165.46875 L 371.25 166.40625 L 381.25 165.65625 L 387.25 165.65625 L 391 167.65625 L 394 180.15625 L 392.78125 184 L 392.375 183.75 L 391.75 190.5 L 386.125 193 L 374.625 194.25 L 372.25 194 L 371.5 191.40625 L 371.75 191.4375 L 384.21875 188.53125 L 387.5625 186.21875 L 381.84375 186.9375 L 373.09375 188.09375 L 364.34375 187.90625 L 355.9375 186.15625 L 277.71875 179.59375 L 278.25 185.4375 L 362.65625 190.90625 L 362.75 189.40625 L 363.71875 189.3125 L 363.125 201.5 L 360.375 203.875 L 273.5 198.625 L 271.75 197.125 L 278.875 197 L 277.75 192.625 L 273.25 192.5 L 271.625 191.25 L 277.625 191 L 277.25 186.5 L 272 186.5 L 270 185.125 L 277.125 185.125 L 276.875 180 L 251 178.125 L 251.03125 178.1875 L 240.15625 177.65625 L 172.53125 172.90625 L 118.6875 168.65625 L 120.71875 174.03125 L 120.8125 174.53125 C 122.09391 174.69213 132.34537 175.60704 142.96875 176.53125 C 142.84425 175.66415 142.5625 173.75312 142.5625 173.6875 L 143.53125 173.5 L 144.15625 176.625 C 156.31354 177.68147 167.91027 178.68082 168.71875 178.75 C 168.60773 177.9629 168.34375 176.12452 168.34375 176.0625 L 169.3125 175.90625 L 169.90625 178.84375 L 203.625 180.8125 L 203.28125 179.25 L 204.625 179.15625 L 205.0625 180.90625 L 239.53125 182.90625 L 239.34375 182 L 240.6875 181.90625 L 240.96875 183 L 243.03125 183.125 L 242.78125 182.09375 L 248.53125 182.25 L 252.3125 182.75 L 254 188.625 L 258.5 202.25 L 264.125 212.875 L 270.375 220.625 L 270.125 221.375 L 265 219.375 L 260.25 215.625 L 256.375 209.375 L 253.25 205.625 L 254.375 210.25 L 254.875 214.125 L 249.875 205.875 L 246.75 196.5 L 173.125 192 L 120.875 187.125 L 119.75 185.5 L 121.375 185.5 L 120.75 181 L 119.125 181.125 L 118.375 180 L 120.375 179.875 L 119.5 175.625 L 117.125 175.375 L 117 174.375 L 119.375 174.625 L 117 168.5 L 96.5 166.875 L 96.09375 167.1875 L 54.09375 164.3125 L 55.6875 165.28125 L 68.0625 166.78125 L 78.21875 166.875 L 78.3125 167.6875 L 71.21875 167.59375 L 47.71875 166.4375 L 38.25 166 L 38.15625 166.15625 L 31.625 166.15625 L 32.78125 172.53125 L 35.25 179.0625 L 38.4375 182.53125 L 41.34375 183.65625 L 48.6875 184.375 L 90.25 186.75 L 88.8125 182.6875 L 50.71875 179.0625 L 52.5 182.6875 L 48.4375 182.875 L 46.75 178.8125 L 43.84375 178.53125 L 42.0625 176.78125 L 39.40625 170.3125 L 38.84375 167.25 L 85.90625 170.5 L 85.90625 169.78125 L 90.84375 169.96875 L 91.625 170.1875 L 91.5 170.25 L 94 174.875 L 94.75 188.75 L 97.125 198 L 97.625 200.75 L 94.375 197.5 L 91.5 190.25 L 60.625 188.625 L 45.875 188 L 38.625 185.75 L 43 192.625 L 49 198.625 L 53.75 202.375 L 60 203.375 L 79.5 205.375 L 84.75 218.875 L 92.75 229.375 L 101 236.125 L 21.75 249.125 L 2.25 252.125 L 0 254.375 L 4 257.875 L 35.25 261.875 L 65 266.375 L 120 275.375 L 147 276.125 L 240.75 283.375 C 240.75 283.375 276.5 287.375 277.75 287.375 C 279 287.375 311 289.125 311 289.125 L 348.25 287.875 L 367.625 285.875 L 375 282.125 C 375 282.125 383.25 280.375 384.125 280.25 C 385 280.125 394.5 277.375 394.5 277.375 L 402 276.25 L 427.75 273.25 L 454.75 268.125 L 461.625 265.75 L 461.25 264.375 L 455.625 263.5 L 577.25 227.15625 L 577.25 226.96875 L 608.375 217.78125 L 629.0625 214.78125 L 639.3125 213.5625 L 645.5 211.25 L 647.25 209.125 L 644.59375 208.4375 L 648.84375 205.25 C 648.84375 205.25 673.08486 196.0625 673.96875 196.0625 C 674.85263 196.0625 680.3125 194.46875 680.3125 194.46875 L 675.53125 192.875 L 651.4375 192.53125 L 651.3125 192.59375 L 650 198.15625 L 646.8125 202.15625 L 642.65625 203.46875 L 639.21875 202.84375 L 635.25 197.5625 L 632.5 189.0625 C 632.5 189.0625 630.91161 182.16069 631 181.71875 C 631.0884 181.27681 630.65625 173.875 630.65625 173.875 L 631.1875 170.9375 L 632.40625 168.125 L 631.71875 176 L 632.15625 184.125 L 633.46875 185.78125 L 636.375 177.3125 L 638.34375 163.96875 L 638.9375 172.96875 L 641.59375 169.8125 L 641.25 174.21875 L 637.53125 186.5 L 634.4375 190.21875 L 635.25 191.96875 L 638.15625 190.84375 C 638.15625 190.84375 642.47411 180.3223 642.5625 179.96875 C 642.6509 179.6152 644.96875 166.4375 644.96875 166.4375 L 645.75 173.0625 L 647.78125 165.1875 L 647.6875 170.9375 L 646.46875 180.0625 L 647.1875 185.1875 L 646.5625 188.09375 L 644.09375 191.625 L 643.90625 195.25 L 645.59375 196.65625 L 648.75 195.59375 L 650.0625 192.5 L 649.90625 192.5 L 653.8125 177.5 L 654.875 166.34375 L 654.875 160 L 654.96875 159.9375 L 654.75 154 L 655.5 153.8125 C 655.5 153.8125 656.01158 158.56032 656.125 159.375 L 685.28125 144.78125 L 688.09375 140.90625 L 691.65625 131.71875 L 691.75 131.75 L 695.125 115.5 C 695.125 115.5 693.625 113.625 693.125 113.375 C 692.625 113.125 696.125 111 696.125 111 L 694.375 109.625 L 691.125 105.875 L 695.125 105.375 L 696.625 103 L 696.25 99.125 L 656 98.125 L 615.4375 99.1875 L 598 99.9375 L 589.25 100.5 L 587.6875 99.25 L 595.5625 99.1875 L 602.15625 98.65625 L 602.1875 98.75 L 618.875 98.25 C 618.875 98.25 634.9375 96.8125 635.375 96.8125 C 635.8125 96.8125 644.4375 94.875 644.4375 94.875 L 637.8125 90.625 L 642.1875 89.375 L 642.8125 87.6875 L 639.625 83.6875 C 639.625 83.6875 634.125 82.3125 633.8125 82.25 C 633.5 82.1875 631.625 84.0625 631.625 84.0625 C 631.625 84.0625 625.6875 82 624.4375 81.5625 C 623.1875 81.125 623.625 77.125 623.5625 76.5625 C 623.5 76 620.125 70.4375 620.125 70.4375 L 614.8125 68.125 L 610.8125 68.0625 L 602.125 72.4375 C 602.125 72.4375 597.5 76.875 597.125 77.0625 C 596.77138 77.239312 594.49368 78.622278 593.65625 78.78125 L 586.0625 70.625 L 590.5 70.1875 C 590.5 70.1875 596.75 67.99995 596.90625 67.96875 C 597.0625 67.9375 607 64.78125 607 64.78125 L 613.59375 63.5625 L 616.25 63.375 L 616.3125 62.65625 z M 422.65625 62.75 L 422.125 64.09375 L 430.96875 64.625 L 458.375 65.59375 L 462.34375 64.4375 L 422.65625 62.75 z M 310.5 63.09375 L 301.75 64 L 290.53125 65.3125 L 275.6875 66.90625 L 259.5 68.5 L 242.625 70.34375 L 211.9375 75.125 L 209.03125 77 L 237.84375 72.03125 L 270.5625 68.3125 L 294.3125 65.40625 L 314.46875 63.5625 L 310.5 63.09375 z M 612 65.375 L 607.25 66.875 L 601 70.25 L 595.25 76 L 596.25 76.75 L 600.375 72.75 L 606.5 68.875 L 612 65.375 z M 476.5 65.6875 L 473.0625 66.28125 L 466.6875 69.65625 L 466.5 70.53125 L 474.90625 67.4375 L 499.3125 69.21875 L 500.625 68.40625 L 476.5 65.6875 z M 528.03125 66.28125 L 526.96875 67.875 L 534.03125 68.25 L 535 66.90625 C 535 66.90625 528.82675 66.28125 528.03125 66.28125 z M 457.21875 69.46875 L 443.25 71.40625 L 423.09375 73.71875 L 376.25 82.5625 L 349.40625 88.375 L 333.125 93.6875 L 324.46875 97.59375 L 325.625 97.875 L 331.4375 95.125 L 336.875 93.1875 L 345.75 90.375 L 358.625 87.125 L 376.4375 83.78125 L 407.90625 78.65625 L 421 77.59375 L 440.59375 75.46875 L 447.6875 74.78125 L 460.0625 71.9375 L 461.46875 70 L 457.21875 69.46875 z M 690.46875 79.375 L 690.03125 80 C 690.03125 80 692.3308 86.45359 692.375 86.71875 C 692.4192 86.98392 693.1875 92.375 693.1875 92.375 L 694.15625 96.375 L 695.375 98.03125 C 695.375 98.03125 696.35891 97.87722 696.09375 97.65625 C 695.82858 97.43528 694.59375 95.6875 694.59375 95.6875 C 694.59375 95.6875 693.625 87.85891 693.625 87.59375 C 693.625 87.32858 691.75 81.375 691.75 81.375 L 690.46875 79.375 z M 648.125 86.1875 L 646.125 89 C 646.125 89 653.375 92.5 653.6875 92.75 C 654 93 659.3125 95 660.25 95.125 C 661.1875 95.25 677.1875 95.625 677.1875 95.625 L 671.8125 93.3125 L 668.875 93.875 L 659.9375 93.6875 L 659.4375 89 L 653.4375 86.625 L 648.125 86.1875 z M 596.125 88.9375 L 599.34375 90.125 L 600.1875 92.6875 L 598.125 94.4375 L 598.875 97.375 C 598.875 97.375 597.3125 98.125 597 98.0625 C 596.6875 98 595.3125 94.3125 595.3125 94.3125 L 597.625 93.5625 L 598.5625 91.8125 L 595.875 89.9375 L 596.125 88.9375 z M 567.875 100.15625 L 570.25 101.53125 L 550.5 102.53125 L 530.25 103.15625 L 529.75 102.40625 L 550.875 101.40625 L 567.875 100.15625 z M 498 104.28125 L 510.25 104.28125 L 493.875 107.15625 L 482.625 107.65625 L 480.75 106.40625 L 498 104.28125 z M 22.21875 113.84375 L 19.71875 114.21875 L 18.4375 114.96875 L 17.25 116.25 L 17.125 117.9375 L 17.4375 120.90625 L 24.3125 141.875 L 25.8125 142.1875 L 26.59375 141.875 L 25.75 140.75 L 23.4375 136 L 20.59375 126.78125 L 18.4375 119.28125 L 18.375 117.3125 L 19.25 115.6875 L 20.96875 114.90625 L 22.40625 114.46875 L 22.21875 113.84375 z M 653.125 115 L 659.375 115.5 L 662.375 117.625 L 664.375 121.28125 L 663 121.28125 L 659.8125 119.15625 L 654.5 118.625 L 642.65625 120.21875 L 643.21875 119.1875 L 643.625 119.125 L 645 116.75 L 653.125 115 z M 57.59375 115.21875 L 50.90625 115.625 L 48.625 116.625 L 48 118.65625 L 49.75 126.59375 L 46.21875 126.59375 C 45.713674 126.59375 48 128.5 48 128.5 L 48.875 133.53125 L 47.34375 140.09375 L 44.84375 145.65625 L 41.4375 147.9375 L 38.78125 149.0625 L 34.71875 148.4375 L 31.4375 147.4375 L 28.78125 145.53125 L 26.65625 145.53125 L 20.84375 150.09375 L 29.1875 150.96875 L 26.15625 151.96875 L 29.8125 154 L 34.09375 155.125 L 36.875 154.375 L 32.46875 153 L 33.46875 152.46875 L 37.75 152.59375 L 47.21875 153.25 L 53.40625 154.25 L 57.46875 155.625 L 73 157.03125 L 65.65625 154 L 77.28125 155.125 L 75.78125 154.125 L 86.375 155.5 L 92.0625 154.875 L 91.1875 151.21875 L 89.28125 151.21875 L 89.28125 150.09375 L 90.90625 149.84375 L 90.40625 145.53125 L 88.40625 145.65625 L 88.28125 144.15625 L 90.03125 144.28125 L 89.40625 139.84375 L 87.375 139.96875 L 86.75 138.21875 L 89.28125 138.46875 L 88.15625 134.0625 L 86.375 134.3125 L 85.5 133.15625 L 87.625 132.90625 L 87.5 130.90625 L 89.28125 133.03125 L 110.65625 134.375 C 110.30327 133.25075 109.68971 131.28559 109.28125 129.9375 L 87.125 128.625 L 87.03125 128.875 L 78.03125 128.5 L 79.4375 130.625 L 80.3125 133.65625 L 79.5625 140.375 L 77.90625 145.28125 L 74.875 148.5625 L 72.09375 150.21875 L 69.1875 150.71875 L 66.03125 150.71875 L 63.65625 150.34375 L 61.125 149.3125 L 58.71875 146.6875 L 55.8125 143.40625 L 53.40625 136.9375 L 51.15625 126.46875 L 49.625 120.90625 L 50.125 117.75 L 52.90625 116.375 L 58.84375 116.375 L 64.65625 116.25 L 57.59375 115.21875 z M 24.875 115.75 L 21.59375 116.375 L 20.21875 117.875 L 20.34375 120.15625 L 21.46875 123.9375 L 22.46875 129.75 L 25.375 136.3125 L 25.375 129.25 L 26.28125 123.6875 L 28.65625 120.53125 L 31.4375 118.53125 L 34.84375 117.25 L 30.9375 116 L 24.875 115.75 z M 56.8125 117 L 53.53125 117.25 L 51.03125 118.65625 L 51.28125 122.1875 L 53.53125 127.5 L 54.0625 133.03125 L 54.9375 137.59375 L 57.34375 142.75 L 60.375 146.5625 L 64.15625 149.34375 L 67.8125 149.96875 L 70.46875 149.84375 L 73.625 147.8125 L 75.65625 144.65625 L 77.28125 140 L 72.34375 145.65625 L 69.6875 146.40625 C 70.148046 145.85615 70.59375 145.25 70.59375 145.25 L 71 144.0625 L 70.90625 142.46875 L 70.21875 143.21875 L 68.75 144.75 C 68.75 144.75 66.199204 145.71798 65.78125 145.84375 L 63.125 144.28125 L 59.34375 139.875 L 58.09375 135.6875 L 58.21875 130.125 L 59.71875 125.09375 L 62.625 122.1875 L 66.03125 121.03125 L 69.71875 121.9375 L 66.9375 118.78125 L 62.625 117.875 L 56.8125 117 z M 467.625 126.03125 L 472.375 127.53125 L 478.25 130.28125 L 481.75 134.28125 L 480.875 134.40625 L 477.625 131.65625 L 474 130.15625 L 467.625 127.65625 L 457 128.40625 L 447.125 129.78125 L 438.5 131.53125 L 432.75 133.65625 L 426 138.90625 L 420.375 146.15625 L 420.25 144.40625 L 422.25 140.28125 L 426.75 134.90625 L 432 131.53125 C 432 131.53125 445 127.40625 446.125 127.40625 C 447.25 127.40625 457.625 126.15625 457.625 126.15625 L 467.625 126.03125 z M 293.4375 126.59375 L 289.3125 126.6875 L 286.09375 127.40625 L 284.15625 128.90625 L 283.6875 131.84375 L 284.6875 130.78125 L 286.1875 130.4375 L 288.875 131.21875 C 288.875 131.21875 287.45982 134.99553 287.28125 135.53125 C 287.10268 136.06696 285.46875 141.3125 285.46875 141.3125 L 285.46875 144.96875 L 286.46875 150.78125 L 289.3125 156.84375 L 292.53125 160.78125 L 297.4375 163.71875 L 302.09375 164.53125 L 307.09375 163.90625 L 310.46875 162.03125 L 314.78125 157.84375 L 316.90625 151.84375 L 316.71875 144.71875 L 316.1875 138.1875 L 314.9375 134.625 L 312.4375 130.96875 L 309.3125 129 L 305.03125 127.21875 L 300.65625 126.6875 L 293.4375 126.59375 z M 342.3125 128 L 335.6875 128.3125 L 331.09375 129.125 L 327.6875 130.3125 L 326.40625 132.46875 L 329.25 132.03125 L 331.34375 132.65625 L 331.71875 134.8125 L 330.1875 137.03125 L 328.5625 141.125 L 327.875 146.75 L 328.8125 152.15625 L 331.21875 157.59375 L 334.1875 161.84375 L 338.53125 165 L 341.8125 166.375 L 344.84375 166.8125 L 348.125 166.6875 L 349.96875 166.125 L 354.125 164.28125 L 356.78125 162.40625 L 359.4375 159.25 L 361.0625 155.46875 L 361.5 150.90625 L 361.3125 144.34375 L 359.875 138.21875 L 358.15625 134.8125 L 355.84375 132.46875 L 352.75 130.53125 L 348.4375 129 L 342.3125 128 z M 648.09375 128.53125 C 648.21875 128.56245 649.15625 129.65625 649.15625 129.65625 L 649.28125 131 L 648.65625 131.75 L 648.1875 131.84375 L 647.75 133.28125 L 647.21875 132.5 L 647.53125 131.28125 L 647.03125 130.75 L 646.1875 131.09375 L 645.875 130.34375 C 645.875 130.34375 647.96875 128.5 648.09375 128.53125 z M 648.28125 129.6875 L 647.65625 130.1875 C 647.68745 130.0625 648.1875 130.96875 648.1875 130.96875 L 648.6875 130.40625 L 648.28125 129.6875 z M 110.28125 129.96875 L 111.90625 134.4375 L 135 135.90625 C 134.72034 135.01598 134.05221 132.84929 133.59375 131.34375 L 110.28125 129.96875 z M 302.28125 129.96875 L 305.46875 130.875 L 308.15625 132.46875 L 310.75 134.53125 L 313.34375 137.125 L 314.3125 140.4375 L 314.78125 146.84375 L 314.59375 150.875 L 313.34375 155.34375 L 311.03125 158.5625 L 308.59375 160.0625 L 305.03125 161.0625 L 307.90625 157.46875 L 309.21875 154.625 L 308.34375 152.84375 L 304.0625 158.28125 L 302.28125 159.90625 L 299.15625 159.8125 L 296.09375 157.9375 L 292.71875 155.15625 L 291.1875 151.84375 L 290.5625 147.65625 L 290.3125 142.46875 L 291.65625 138.09375 L 292.71875 136.40625 L 295.125 135.4375 L 299.15625 135.6875 L 303.96875 136.5 L 307.90625 138.09375 L 305.75 135.0625 L 302.8125 132.9375 L 299.84375 132.125 L 297.96875 131.21875 L 298.96875 130.34375 L 302.28125 129.96875 z M 345.78125 131.28125 L 349.78125 132.40625 L 354.5 135.9375 L 357.53125 139.78125 L 358.6875 144.09375 L 358.9375 149 L 357.96875 153.8125 L 355.3125 158.40625 L 351.84375 161.5625 L 349.53125 162.78125 L 345.90625 163.15625 L 347.75 161.71875 L 350.15625 157.59375 L 346.625 160.0625 L 342.75 161.3125 C 342.75 161.3125 340.62818 161.0644 340.3125 160.875 C 339.99683 160.68559 336.5625 158.21875 336.5625 158.21875 L 334.1875 155.40625 L 332.28125 151.15625 L 332.09375 144.15625 L 332.90625 140.5 L 334.8125 138.46875 L 337.28125 136.78125 L 339.21875 135.9375 L 342.3125 136.0625 L 347.5625 137.03125 L 349.84375 138.40625 L 349.59375 137.03125 L 345.34375 134 L 340.0625 132.34375 L 342.3125 131.53125 L 345.78125 131.28125 z M 134.5625 131.40625 L 136.25 135.96875 L 158.21875 137.34375 L 160.6875 137.4375 C 160.33227 136.30617 159.64121 134.14107 159.25 132.84375 L 134.5625 131.40625 z M 639.84375 131.96875 L 642.9375 134.71875 L 646.125 140.625 L 647.875 148.6875 L 648.21875 163.25 L 646.65625 164.65625 L 646.28125 168.03125 L 645.5 163.15625 L 644.75 162.375 L 644.34375 150.3125 L 642.84375 140 L 640.1875 135.78125 L 638.25 134.34375 L 636.46875 134.875 L 636.65625 133.28125 L 639.84375 131.96875 z M 649.6875 132.5625 L 650.75 134 L 650.4375 134.65625 C 650.4375 134.65625 651 134.46875 651.09375 134.59375 C 651.18745 134.71875 651.3125 135.1875 651.3125 135.1875 L 648.96875 136.6875 L 648.46875 135.90625 L 648.65625 135.59375 L 648 134.6875 L 648.0625 133.53125 L 648.71875 132.65625 L 649.6875 132.5625 z M 160.25 132.90625 L 161.90625 137.5 L 196.53125 138.9375 C 196.30987 138.22118 195.71977 136.28114 195.21875 134.625 L 160.25 132.90625 z M 649.28125 133.6875 L 648.71875 134.0625 L 649.125 134.65625 L 649.59375 134.75 L 649.8125 134.21875 L 649.28125 133.6875 z M 89.15625 134.25 L 90.21875 138.84375 L 112.1875 140.3125 L 111.09375 135.5 L 89.15625 134.25 z M 196.1875 134.6875 L 197.78125 139 L 232.875 140.46875 C 232.49987 139.25396 231.87063 137.21626 231.5 135.96875 L 196.34375 134.6875 L 196.1875 134.6875 z M 112.09375 135.53125 L 113.21875 140.375 L 136.6875 141.9375 L 135.53125 136.875 L 112.09375 135.53125 z M 232.4375 136 L 234.09375 140.5 L 269.96875 142 L 268.96875 137.71875 L 248.375 136.5625 L 232.4375 136 z M 636.375 136.21875 L 639.09375 139.09375 L 641.15625 144.96875 L 641.96875 150.96875 L 642.53125 158.71875 L 642.40625 162.8125 L 641.53125 163.5625 L 640.375 162.15625 L 640.15625 163.96875 L 638.1875 162.15625 L 638.125 153.65625 L 637.0625 146.03125 L 635.625 141.21875 L 634.4375 138.65625 L 635.6875 137.65625 L 637.59375 141.0625 L 639.4375 147.6875 L 640.28125 153.28125 L 640.40625 158.21875 L 641.15625 158.25 L 641.03125 152.90625 L 640.28125 146.9375 L 638.78125 141.15625 L 636.75 137.71875 L 635.84375 136.84375 L 636.375 136.21875 z M 45.96875 136.5625 L 44.0625 140.3125 L 40.65625 143.0625 L 37.9375 144.03125 L 35.9375 144.09375 L 33.96875 143.53125 L 28.46875 140.75 L 27.96875 142 L 30.1875 144.78125 L 32.53125 146.75 L 34.90625 147.5 L 37 147.75 L 38.25 147.625 L 39.84375 147.125 L 42.25 145.71875 L 43.9375 143.78125 L 45.65625 141.0625 L 46.59375 137 L 45.96875 136.5625 z M 136.53125 136.9375 L 137.75 142 L 146.21875 142.5625 L 161.96875 143.34375 L 160.84375 138.3125 L 136.53125 136.9375 z M 650.53125 137.0625 L 651.875 137.78125 L 652 139.3125 L 653.25 138.90625 L 653.53125 140.15625 L 650.03125 141.3125 L 649.25 138.375 L 649.96875 137.28125 L 650.53125 137.0625 z M 650.5 138.34375 L 650.34375 139.0625 L 650.9375 139.53125 L 651.1875 138.90625 L 650.5 138.34375 z M 161.84375 138.375 L 163.03125 143.40625 L 197.75 145.125 L 196.59375 140.125 L 175.90625 139.15625 L 161.84375 138.375 z M 90.0625 139.78125 L 91.25 144.28125 L 113.4375 145.9375 L 112.34375 141.15625 L 90.0625 139.78125 z M 197.625 140.15625 L 198.78125 145.15625 L 211.3125 145.78125 L 234.5 146.625 L 233.375 141.6875 L 207.71875 140.625 L 197.625 140.15625 z M 113.34375 141.21875 L 114.46875 146.03125 L 130.4375 147.21875 L 138.0625 147.6875 L 136.90625 142.65625 L 113.34375 141.21875 z M 234.34375 141.71875 L 235.53125 146.65625 L 270.96875 147.9375 L 270.09375 143.21875 L 260.4375 142.8125 L 234.34375 141.71875 z M 654 141.875 L 654.28125 142.90625 L 653.40625 142.71875 L 653.21875 143.1875 L 650.71875 143.84375 L 650.4375 142.8125 L 652.96875 142.15625 L 653.375 142.5 L 654 141.875 z M 137.90625 142.71875 L 139.09375 147.75 L 163.46875 149.28125 L 162.3125 144.1875 L 137.90625 142.71875 z M 163.3125 144.25 L 164.5 149.34375 L 181.3125 150.40625 L 198.96875 151.28125 L 197.8125 146.1875 L 186.9375 145.65625 L 163.3125 144.25 z M 652.21875 144.96875 C 652.21875 144.96875 653.1875 145.46875 653.25 145.625 C 653.3125 145.78125 653.375 147.96875 653.375 147.96875 L 653.90625 147.96875 L 653.9375 149.125 C 653.9375 149.125 651.0625 149.65625 651.09375 149.53125 C 651.12495 149.40625 651 148.46875 651 148.46875 L 651.34375 148.03125 L 650.5625 146.75 L 650.90625 145.53125 C 651.03125 145.53125 652.21875 144.96875 652.21875 144.96875 z M 198.8125 146.21875 L 200 151.34375 L 236.03125 153.15625 L 234.8125 147.8125 L 210.375 146.78125 L 198.8125 146.21875 z M 651.875 146.21875 C 651.875 146.21875 651.5625 146.78125 651.59375 146.90625 C 651.62495 147.03125 652.03125 147.90625 652.03125 147.90625 L 652.625 147.53125 L 652.625 146.75 L 651.875 146.21875 z M 437 147.40625 L 439.46875 147.40625 L 439.5 147.875 L 436.8125 147.9375 L 436.59375 148.96875 L 438.84375 148.96875 L 438.75 149.875 L 436.28125 149.8125 L 436 151.25 L 434.71875 151.25 L 435.75 147.4375 L 437 147.40625 z M 442.625 147.40625 L 443.84375 147.40625 L 444.75 147.5625 L 446.53125 148.4375 L 446.125 149.5 L 445.15625 148.78125 L 443.3125 148.03125 L 442.25 148.78125 L 441.84375 150.0625 L 442.65625 150.8125 L 444.21875 151.0625 L 444.75 150.5 C 444.75 150.5 443.9413 149.82008 443.875 149.6875 C 443.8087 149.55492 444.21875 149.25 444.21875 149.25 L 445.875 149.96875 L 445.8125 151.03125 L 445.21875 151.96875 L 443.5625 152.125 L 441.125 151.21875 L 440.71875 150.46875 L 441.125 148.84375 L 442.1875 147.46875 L 442.625 147.40625 z M 632.75 147.75 L 634.09375 148.90625 L 634.09375 152.65625 C 634.09375 152.65625 633.1067 155.65403 633.0625 155.875 C 633.0183 156.09598 633.6875 158.34375 633.6875 158.34375 L 634.96875 160.59375 C 634.96875 160.59375 635.29955 162.54734 635.34375 162.8125 C 635.38795 163.07767 634.34375 163.21875 634.34375 163.21875 C 634.34375 163.21875 633.96875 160.70803 633.96875 160.53125 C 633.96875 160.35449 633.21875 160.59375 633.21875 160.59375 L 632.15625 162.09375 L 631.3125 161.5625 L 632.90625 158.5625 L 631.71875 156.3125 C 631.71875 156.3125 632.375 153.80936 632.375 153.5 C 632.375 153.19064 633.125 150.21875 633.125 150.21875 C 633.125 150.21875 632.7942 148.01516 632.75 147.75 z M 433.75 147.78125 L 433.375 149.5 L 433.53125 150.84375 L 432.65625 151.78125 L 428.90625 152.96875 L 429 151.5 L 429.25 149.15625 L 429.65625 148.6875 L 431.28125 147.9375 L 433.75 147.78125 z M 235.8125 147.84375 L 237.03125 153.1875 L 272.5625 154.96875 L 271.625 149.34375 L 235.8125 147.84375 z M 210.1875 148 L 210.25 150.78125 L 209.34375 150.78125 L 209.25 148.09375 L 210.1875 148 z M 217.9375 148.4375 L 219.09375 148.46875 L 219.09375 151.1875 L 218.25 151.125 L 218.125 149.40625 L 216.1875 151.1875 L 214.53125 149.40625 L 214.53125 150.875 L 213.6875 150.84375 L 213.75 148.5 L 214.875 148.53125 L 216.25 149.875 L 217.9375 148.4375 z M 432.53125 148.4375 L 430 149.21875 L 429.90625 149.90625 L 432.34375 149.34375 L 432.53125 148.4375 z M 222.5625 148.53125 L 225.84375 148.59375 L 227 148.8125 L 227.0625 150.375 L 226.125 150.71875 L 223.53125 150.6875 L 223.46875 151.34375 L 222.59375 151.34375 L 222.5625 148.53125 z M 231.125 148.84375 C 231.125 148.84375 232.59375 148.9142 232.625 148.9375 C 232.6562 148.9609 234.5625 151.9375 234.5625 151.9375 L 233.625 151.9375 L 232.875 151.09375 L 230.78125 151.0625 L 230.28125 151.6875 L 229.34375 151.65625 L 229.46875 151.5 L 231.125 148.84375 z M 236.8125 149.03125 L 237.71875 149.0625 L 237.9375 151.125 L 241.375 151.15625 L 241.4375 151.96875 L 236.90625 152 L 236.8125 149.1875 L 236.8125 149.03125 z M 225.1875 149.3125 L 223.5 149.34375 L 223.4375 150.28125 L 225.84375 150.28125 L 226 150.03125 L 225.875 149.625 L 225.1875 149.3125 z M 258.0625 149.3125 C 258.125 149.3125 259.59375 149.59375 259.59375 149.59375 L 260.84375 150.25 L 260.9375 150.8125 L 258.96875 150.78125 L 258.46875 150.1875 L 257.3125 150.15625 L 256.78125 150.46875 L 256.96875 151.09375 L 258.28125 151.3125 L 259.34375 151.25 L 260.40625 151.65625 L 261 152.375 L 261 153.15625 L 260.5 153.65625 L 259.5625 153.875 L 256.6875 153.875 L 255.71875 153.4375 L 254.71875 152.59375 L 256.875 152.53125 L 256.9375 152.96875 L 257.84375 153.125 L 258.8125 152.9375 L 259.0625 152.46875 L 258.6875 152.0625 L 257.15625 152 L 256.03125 151.84375 L 255.34375 151.40625 L 255.125 150.40625 L 255.625 149.59375 L 256.5625 149.375 C 256.5625 149.375 258 149.3125 258.0625 149.3125 z M 232.09375 149.625 L 231.625 149.6875 L 231.21875 150.375 L 232.5 150.40625 L 232.09375 149.625 z M 245 149.65625 L 246.6875 149.71875 L 248.15625 152.34375 L 247.03125 152.375 L 246.65625 151.6875 L 244.6875 151.59375 L 244.125 152.1875 L 243.09375 152.03125 L 245 149.65625 z M 266.4375 149.65625 C 266.5 149.65625 267.96875 149.9375 267.96875 149.9375 L 269.21875 150.59375 L 269.3125 151.15625 L 267.34375 151.125 L 266.84375 150.53125 L 265.6875 150.5 L 265.15625 150.8125 L 265.34375 151.4375 L 266.65625 151.65625 L 267.71875 151.59375 L 268.78125 152 L 269.375 152.71875 L 269.375 153.5 L 268.875 154 L 267.9375 154.21875 L 265.0625 154.21875 L 264.09375 153.78125 L 263.09375 152.9375 L 265.25 152.875 L 265.3125 153.3125 L 266.21875 153.46875 L 267.1875 153.28125 L 267.4375 152.8125 L 267.0625 152.40625 L 265.53125 152.34375 L 264.40625 152.1875 L 263.71875 151.75 L 263.5 150.75 L 264 149.9375 L 264.9375 149.71875 C 264.9375 149.71875 266.375 149.65625 266.4375 149.65625 z M 431.84375 150.21875 L 429.96875 150.71875 L 429.90625 151.53125 L 432.3125 151 L 432.53125 150.4375 L 431.84375 150.21875 z M 449.28125 150.375 L 451.71875 151.875 L 451.78125 153.59375 L 450.625 154.75 L 449.03125 154.6875 L 446.96875 153.125 L 447.03125 151.84375 L 447.9375 150.4375 L 449.28125 150.375 z M 245.40625 150.40625 L 245.03125 150.96875 L 246.5 151.03125 L 246.21875 150.4375 L 245.40625 150.40625 z M 654.25 151.03125 L 654.25 152.5 L 651.5625 152.53125 L 651.5625 151.28125 L 654.25 151.03125 z M 448.75 151.53125 L 448.40625 152.15625 L 448.53125 152.9375 L 449.875 153.46875 L 450.5625 153.0625 L 450.5 152.21875 L 449.4375 151.625 L 448.75 151.53125 z M 453.59375 153.8125 C 453.59375 153.8125 455.12121 154.35827 455.1875 154.46875 C 455.2538 154.57924 456.52746 156.27367 456.59375 156.40625 C 456.66005 156.53884 456.46875 157.875 456.46875 157.875 L 455.625 158.71875 L 453.90625 158.53125 L 452.46875 157 L 451.90625 155.65625 L 452.53125 154.34375 L 453.59375 153.8125 z M 454.40625 155.1875 L 453.6875 155.21875 L 453.21875 155.78125 L 453.5625 156.59375 L 454.375 157.375 L 455.375 157.15625 L 455.53125 156.15625 L 454.40625 155.1875 z M 653.53125 156.25 L 654.1875 156.53125 L 654.28125 161.625 L 653.3125 161.3125 L 653.40625 159.75 L 651.78125 159.09375 L 651.78125 157.75 L 653.53125 158.1875 L 653.53125 156.25 z M 436.46875 157.0625 L 443.78125 159.1875 L 450.78125 164.59375 L 455.71875 171.5625 L 459.25 179.59375 L 461.8125 189.9375 L 463 203.40625 L 459 223.90625 L 454.5 236.90625 L 458 233.15625 L 451.75 244.65625 L 445 251.90625 L 440.25 253.40625 L 440.25 253.625 L 436.84375 254.875 L 428.625 254.75 L 422.1875 253.09375 L 415.90625 249.09375 L 410.875 243.75 L 408.78125 245.625 L 409.625 247.21875 L 408.40625 247.96875 L 405.3125 242.3125 L 406.4375 241.875 L 407.59375 243.15625 L 409.875 241.9375 L 409.21875 240.6875 C 408.47577 240.49819 404.6875 240.15625 404.6875 240.15625 L 404.28125 239.0625 L 408.59375 239.46875 L 406.4375 235.3125 L 407.15625 235.0625 L 408.46875 237.28125 L 413.875 244.5625 L 418.59375 249.03125 L 424.3125 251.8125 C 424.3125 251.8125 428.45895 252.7866 428.8125 252.875 C 429.16606 252.9634 432.625 252.9375 432.625 252.9375 L 436.53125 252.21875 L 439.1875 250.5 L 441.9375 248.375 C 441.9375 248.375 439.25222 249.78125 439.03125 249.78125 C 438.81028 249.78125 435.5625 251.34375 435.5625 251.34375 L 431.15625 251.71875 L 427.40625 251.28125 L 422.8125 249.96875 L 417.75 246.875 L 416.25 245.5 L 412.78125 241.65625 L 409.625 236.5625 L 405.96875 228.125 L 405.875 228.21875 L 404.875 224.375 L 402.875 210.25 L 403.5 204.5 L 406.34375 193.25 L 413.25 191.40625 L 414.5 180.65625 L 413.25 176.40625 L 411.5 176.65625 L 410.5 175.90625 L 414.75 169.65625 L 420.25 162.65625 L 428.25 158.40625 L 428.28125 158.21875 L 431.9375 157.4375 L 436.46875 157.0625 z M 637.40625 157.5625 L 637.5 159.90625 L 636.84375 162.875 L 636.65625 168.03125 L 636.375 173.125 L 635.5625 176.59375 L 635.5625 176.375 L 635.5625 172.71875 C 635.5625 172.45358 635.34375 167.84375 635.34375 167.84375 L 635.78125 163.25 L 637.40625 157.5625 z M 458.40625 158.65625 L 459.59375 159.4375 L 460.59375 161.125 L 461.21875 160.8125 L 462.21875 161.9375 L 459.15625 164.53125 C 459.15625 164.53125 457.50222 162.47097 457.28125 162.25 C 457.06028 162.02902 456.59375 160.28125 456.59375 160.28125 L 456.90625 159.3125 L 458.40625 158.65625 z M 457.96875 160.0625 L 457.59375 160.375 L 457.71875 161.15625 L 459.125 162.625 L 459.875 162.09375 L 460.0625 161.53125 L 458.78125 160.0625 L 457.96875 160.0625 z M 13.6875 160.59375 L 13.25 163 L 15.625 165.46875 L 19.34375 165.90625 L 19.625 164.9375 L 15.71875 163.4375 L 13.6875 160.59375 z M 651.84375 161.03125 L 654.28125 163.625 L 654.09375 164.8125 L 651.78125 162.4375 L 651.84375 161.03125 z M 429.5 161.125 L 435.25 163.125 L 443.125 169.375 L 446.75 175 L 449.125 182.375 L 450.25 182 L 448 174.375 L 447.5 172.125 L 451 178.875 L 452.625 187.375 L 451.625 188.375 L 452.125 202.75 L 451.375 205.25 L 450.5 201.875 L 449.875 207.25 L 448.875 209.125 L 448.125 202.75 L 447 212.75 L 445.5 219.875 L 447 218.875 L 448.125 212.625 L 450.5 213 L 450 217.5 L 445.125 226.5 L 449.25 224.75 L 450.375 227.125 L 455.25 215 L 456.625 203.875 L 455.875 191 L 454 181.875 L 450 173 L 444.25 166 L 438.125 162.75 L 429.5 161.125 z M 632.40625 162.875 L 632.375 164.84375 L 632.8125 166.1875 L 633.53125 165.8125 L 633.90625 164.4375 L 634.71875 163.96875 L 634.8125 166.25 L 633.28125 167.59375 L 631.4375 167.40625 L 630.96875 166 L 631.3125 163.09375 L 632.40625 162.875 z M 462 163.96875 C 462.0686 163.94305 462.11119 163.94945 462.125 163.96875 C 462.23549 164.12343 464.5 168 464.5 168 L 464.78125 170.03125 L 465.125 170 L 465.21875 168.875 L 466.09375 169.25 L 466.09375 170.40625 L 465.1875 170.25 L 465.125 171 L 463.3125 172.125 L 462.40625 170.71875 L 464.0625 169.375 L 462.9375 168.09375 L 462.40625 166.5625 L 460.5625 167.15625 L 459.90625 165.28125 C 459.90625 165.28125 461.51995 164.1485 462 163.96875 z M 651.625 164 C 651.7187 164.125 653.9375 166.40625 653.9375 166.40625 L 653.8125 169.375 L 651.40625 170.6875 L 651.28125 168.4375 L 652.125 168.125 L 652.25 166.75 L 651.46875 165.8125 L 651.625 164 z M 423.75 166.75 L 417.75 168.25 L 423 168.625 L 426.5 169.5 L 435.25 177.5 L 439.75 186 L 441.375 201.125 L 439.5 215.375 L 434.125 228.125 L 425.125 237 L 417.75 239 L 419.625 240.125 L 425.875 238.875 L 431 234.625 L 436.5 227.125 L 440.75 217.5 L 442.375 216.25 L 441.875 222.125 L 438.625 229.5 L 442.5 224.375 L 444.75 217.5 L 446.875 203 L 446 193.125 L 444.875 190.5 C 444.875 190.5 445.375 197.25 445.375 197.875 C 445.375 198.5 444.5 205.625 444.5 205.625 L 442.625 202.75 L 442.5 198.25 L 441.875 188.5 L 439.125 179.625 L 441.625 182 L 438.5 174.5 L 433.25 168.875 L 429.5 166.875 L 423.75 166.75 z M 652.90625 167.25 C 652.87505 167.40625 652.84375 168.4375 652.84375 168.4375 L 653.21875 168.5625 L 653.28125 167.34375 L 652.90625 167.25 z M 89.34375 167.84375 L 93.59375 167.84375 L 94.8125 168.1875 L 94.75 168.25 L 93.59375 168.96875 L 90.15625 168.5625 L 89.34375 167.84375 z M 39.53125 167.90625 L 41.3125 172.53125 L 50.6875 172.96875 C 50.6875 172.96875 49.788833 169.00222 49.65625 168.78125 C 49.523668 168.56028 39.53125 167.90625 39.53125 167.90625 z M 50.46875 168.90625 L 52.40625 178.5 L 75.46875 180.65625 L 73.40625 170.59375 L 50.46875 168.90625 z M 74.28125 170.8125 L 75.34375 175.3125 L 86.875 175.75 L 86.03125 171.5625 L 74.28125 170.8125 z M 465.625 172.78125 L 466.34375 173.0625 L 467.40625 174.375 L 468.4375 177.96875 L 467.28125 178.3125 L 467.09375 177.375 L 466.5 175.125 L 465.8125 174.5625 L 465.375 175.125 L 465.96875 176.78125 L 466.71875 178.6875 L 465.3125 178.9375 C 465.3125 178.9375 463.95045 174.74843 463.90625 174.59375 C 463.86205 174.43907 464.3125 173.125 464.3125 173.125 C 464.3125 173.125 465.51452 172.73705 465.625 172.78125 z M 425.125 173 L 423.125 174.5 L 423.5 180.25 L 425.75 188.5 L 428 188.875 L 432.5 187.25 L 434.5 183.375 L 432.75 179.375 L 428.125 174.5 L 425.125 173 z M 41.65625 173.25 L 41.71875 174.46875 L 42.9375 176.8125 L 45.5 178.1875 L 51.78125 178.3125 L 50.71875 174.03125 L 41.65625 173.25 z M 121.03125 175.6875 L 121.90625 180.15625 L 143.8125 182.1875 C 143.49507 180.06751 143.40821 179.50306 143.15625 177.78125 L 121.03125 175.6875 z M 75.5625 176.28125 L 76.53125 180.84375 L 88.46875 181.71875 L 87.21875 177 L 75.5625 176.28125 z M 144.40625 177.875 L 145.3125 182.34375 L 169.5625 184.59375 C 169.24994 182.4766 169.1871 181.91699 168.9375 180.1875 L 144.40625 177.875 z M 170.1875 180.28125 L 171.09375 184.71875 L 204.875 186.8125 L 203.9375 182.3125 L 170.1875 180.28125 z M 469.71875 180.65625 L 469.96875 182.03125 L 468.8125 182.53125 L 469.84375 184.59375 L 470.09375 186.03125 L 469.59375 187.3125 L 467.34375 187.8125 L 467.15625 186.3125 L 468.84375 185.875 L 468.84375 184.53125 L 467.8125 182.6875 L 466.46875 182.875 L 466.03125 181 C 466.18593 181 469.71875 180.65625 469.71875 180.65625 z M 122.125 181.3125 L 123.03125 185.875 L 144.65625 187.90625 C 144.58715 187.4491 144.30313 185.51852 144 183.5 L 122.125 181.3125 z M 205.4375 182.40625 L 206.5625 186.90625 L 240.84375 189.0625 L 239.875 184.5 L 205.4375 182.40625 z M 145.5625 183.6875 L 146.46875 188.0625 L 170.40625 190.3125 C 170.34385 189.89345 170.0588 187.9987 169.78125 186.125 L 145.5625 183.6875 z M 241.375 184.59375 L 242.5 189.15625 L 244.59375 189.28125 L 243.4375 184.71875 L 241.375 184.59375 z M 278.9375 186.21875 L 279.46875 190.375 L 315.09375 192.34375 L 314.84375 188.53125 L 278.9375 186.21875 z M 171.40625 186.25 L 172.21875 190.4375 L 206.09375 192.53125 L 205.21875 188.375 L 171.40625 186.25 z M 421.5625 186.75 L 417 187.3125 L 415.9375 190.3125 L 418.8125 192.0625 L 421.6875 193.625 L 425.5 192.3125 L 425.3125 188.4375 L 421.5625 186.75 z M 206.96875 188.5 L 208 192.65625 L 242.0625 194.75 L 241.1875 190.625 L 206.96875 188.5 z M 316.78125 188.53125 L 317.84375 199.59375 L 349.125 201.96875 L 347.625 190.46875 L 316.78125 188.53125 z M 348.90625 190.65625 L 349.53125 196.03125 L 362.34375 197.09375 L 362.5625 191.9375 C 362.5625 191.9375 349.43658 190.83303 348.90625 190.65625 z M 242.90625 190.75 L 243.9375 194.875 L 246.0625 195 L 245 190.875 L 242.90625 190.75 z M 366.4375 191 L 370.375 191.3125 L 370.5 198.5 L 368.875 207.625 L 366.375 210.125 L 363.375 211.375 L 356.875 211.5 L 343.75 210.625 L 271.5 205 L 273.125 202.375 L 352.25 208.375 L 359 208.375 L 362.25 207.25 L 363.75 205.625 L 364.625 202.46875 L 364.6875 202.5 L 366.4375 191 z M 279.6875 192.65625 L 280.21875 196.78125 L 315.84375 198.75 L 315.59375 194.9375 L 279.6875 192.65625 z M 431.1875 194.125 L 428.5625 194.5625 L 426.125 195.25 L 424.0625 194.75 C 424.0625 194.75 421.5 194.375 421.1875 194.3125 L 419.0625 195.3125 L 417.8125 197.1875 L 420 196.3125 L 420.625 197.125 L 418.5625 198.625 L 419.875 199.5 L 419.8125 202.75 L 418.5 204 L 418.3125 205.5625 L 419.1875 208.4375 L 417.375 208.0625 L 415.6875 209.125 L 419.125 211.4375 L 422.0625 210.8125 L 422 209.5625 L 424.0625 209.25 L 425.5625 208.0625 L 425.75 204.75 L 426.5625 203.8125 L 426.625 200.9375 L 427.4375 198.4375 L 429.9375 197.25 C 429.9375 197.25 431.5 197.25 431.75 197.3125 C 432 197.375 433.6875 198.625 433.6875 198.625 L 434.9375 195.5625 L 433.4375 195.375 L 431.1875 194.125 z M 349.6875 196.9375 L 350.5 202.0625 L 357.03125 202.8125 L 361.28125 202.40625 L 362.0625 200.9375 L 362.0625 198 L 349.6875 196.9375 z M 436.9375 196.96875 L 435.125 200.21875 L 435.125 203.03125 L 434.9375 206.78125 L 432.625 210.34375 L 427.6875 211.65625 L 423.5625 213.09375 L 426.9375 216.28125 L 429.9375 215.28125 L 429.375 219.40625 L 431.5625 215.90625 L 433.5 217.46875 L 432.6875 223.15625 L 436.0625 216.84375 L 438.1875 204.71875 L 438.3125 198.59375 L 436.9375 196.96875 z M 414.125 197.375 L 408.6875 198.8125 C 408.6875 198.8125 407.9375 200.5625 407.5 200.8125 C 407.0625 201.0625 409.9375 201.0625 409.9375 201.0625 L 413.125 205.6875 L 417.375 203.625 L 417.9375 199.625 L 416.625 198.9375 L 414.125 197.375 z M 430.4375 198.59375 L 428.4375 199.71875 L 427.625 201.78125 L 427.3125 205.34375 L 427.9375 208.40625 L 429.75 209.65625 L 431.0625 209.78125 L 433 208.03125 L 434.1875 204.78125 L 433.5625 200.65625 L 432.5 198.78125 L 430.4375 198.59375 z M 428.875 200.78125 L 431.8125 204.90625 L 432.375 206.90625 C 432.375 206.90625 432.125 207.53125 431.875 207.15625 C 431.625 206.78125 428.625 202.40625 428.625 202.40625 L 428.875 200.78125 z M 404.375 206.25 L 404.125 213.5 L 405.25 220.875 L 406.125 224.25 L 408.625 221.125 L 411.5 214.125 L 409.75 209.625 L 404.375 206.25 z M 432.6875 211.65625 L 433.4375 212.28125 L 434.125 213.71875 L 433.1875 215.40625 L 432.25 215.65625 L 431.25 214.28125 L 431.4375 212.34375 L 432.6875 211.65625 z M 417 212.0625 L 413.1875 215.9375 L 415.9375 218.875 L 417.3125 217.5 L 418.5 216.5 L 419.8125 217.375 L 421.25 216.8125 L 421.875 213.9375 L 419 213.4375 L 417 212.0625 z M 421.625 219.75 L 417.125 226 L 415.75 229.125 L 415.375 233.125 L 416.75 234.5 L 421.875 233.875 L 427 230.125 L 427.375 227.125 L 426.375 224.625 L 421.625 219.75 z M 404.75 230.09375 L 405.25 231.625 L 404.71875 232.46875 L 405.75 235.5625 L 405.75 235.59375 L 406.8125 236.21875 L 407.0625 237.59375 L 403.5625 236.90625 C 403.01387 234.90831 402.375 232.625 402.375 232.625 L 404.75 230.09375 z M 413.78125 247.9375 L 415.375 249.53125 L 412.53125 252.75 L 411.03125 251.21875 L 411.09375 250.90625 L 413.78125 247.9375 z M 416.03125 250.21875 L 417 251.0625 L 416.875 251.65625 C 416.875 251.65625 418.47948 252.12278 418.65625 252.34375 C 418.83303 252.56472 419.78125 254 419.78125 254 L 419.21875 255.9375 L 417.4375 256.59375 L 415.6875 255.625 L 415.28125 254.25 L 414.625 254.375 L 413.875 253.53125 L 416.03125 250.21875 z M 416.65625 252.65625 L 416.03125 253.46875 L 416.5625 254.03125 L 417.5 254.3125 L 417.53125 253.59375 L 416.5625 252.84375 L 416.65625 252.65625 z M 421.28125 254.0625 L 422.3125 254.78125 L 420.8125 257.78125 L 419.5625 256.59375 L 421.28125 254.0625 z M 423.25 255.0625 L 427.25 256.5 L 427.875 257.6875 L 427.53125 259.96875 L 426.125 260.53125 L 423.71875 260 L 422.96875 260.625 L 422.46875 260.53125 L 421.5625 260.125 L 423.25 255.0625 z M 440.25 255.71875 L 440.25 261.125 L 437.8125 261.5625 L 435.1875 261.34375 L 434.6875 259.3125 L 435.8125 258.53125 L 433.625 256.625 L 436.375 256.3125 L 437.1875 257.5625 C 437.1875 257.5625 437.86585 257.4855 437.84375 257.375 C 437.82165 257.26452 437.75 255.96875 437.75 255.96875 L 440.25 255.71875 z M 428.3125 256.5625 L 430.09375 256.625 L 430.28125 257.125 L 431.78125 256.59375 L 432.78125 256.75 L 433.8125 257.84375 L 434.1875 259.375 L 433.5625 260.6875 L 431.59375 261.15625 L 428.34375 261 L 428.84375 257.34375 L 428.3125 256.5625 z M 424.53125 257.15625 L 424.21875 258.0625 L 424.625 258.5 L 425.8125 258.21875 L 425.75 257.53125 L 424.53125 257.15625 z M 419.4375 257.3125 L 420.53125 258.1875 L 419.78125 259.0625 L 418.875 258.21875 L 419.4375 257.3125 z M 431.34375 258.4375 L 430.65625 258.75 L 430.59375 259.28125 L 431.21875 259.4375 L 432.15625 259.1875 L 432.28125 258.59375 L 431.34375 258.4375 z M 438.25 258.96875 L 437.21875 259.09375 L 436.84375 259.625 L 437.4375 260.03125 L 438.625 259.78125 L 438.25 258.96875 z "
       transform="translate(13,249.97276)"
       id="path3838" />
  </g>
</svg>
